# xmcd CD database file
#
# Track frame offsets:
#	150
#	49222
#	107549
#	154552
#	191557
#	246156
#	299039
#
# Disc length: 4235 seconds
#
# Revision: 1
# Processed by: cddbd v1.5.2PL0 Copyright (c) Steve Scherf et al.
# Submitted via: CDex 1.70beta2
#
DISCID=60108907
DTITLE=Various Artist - Jazz Roads CD392 - Bebop - Bebop Live Concerts Vol.3 (1946-47)
DYEAR=1900
DGENRE=Jazz
TTITLE0=Jazz At The Philharmonic - JATP Blues
TTITLE1=Jazz At The Philharmonic - I Got Rhythm
TTITLE2=Jazz At The Philharmonic - I Surrender Dear
TTITLE3=Jazz At The Philharmonic - I Found A New Baby
TTITLE4=Just Bop All Stars - Sweet Georgia Bop
TTITLE5=Just Bop All Stars - Just Bop pt. 1to4 (Just You, Just Me)
TTITLE6=Just Bop All Stars - C Jam Blues
EXTD=
EXTT0=
EXTT1=
EXTT2=
EXTT3=
EXTT4=
EXTT5=
EXTT6=
PLAYORDER=
